<?xml version="1.0" encoding="UTF-8" standalone="no"?>
<!-- Created with Inkscape (http://www.inkscape.org/) -->

<svg width="113.26609mm" height="30.577568mm" viewBox="0 0 113.26609 30.577568" version="1.1" id="svg12"
  xml:space="preserve" xmlns="http://www.w3.org/2000/svg" xmlns:svg="http://www.w3.org/2000/svg">
  <defs id="defs9" />
  <g id="layer1" transform="translate(-43.040601,-77.208685)">
    <g id="g559" transform="translate(9.7639558,-66.882339)">
      <g id="g865">
        <path style="fill:currentColor;stroke-width:0.0441267"
          d="m 48.045411,173.92004 v -0.75015 H 47.204477 46.36354 l 0.008,-0.80532 0.008,-0.80531 -0.826424,-0.012 -0.826417,-0.012 0.0151,-0.80431 0.0151,-0.80433 -0.827114,-0.012 -0.827137,-0.012 v -0.81538 -0.81538 l -0.827364,4e-5 -0.827377,2e-5 v -0.79969 -0.79968 l -0.838404,0.008 -0.838404,0.008 0.0153,-0.81871 0.0153,-0.81871 h -0.820547 -0.820554 v -0.81634 -0.81635 h -0.817567 -0.817554 l 0.0289,-0.82087 0.0289,-0.82087 -0.810937,0.0154 -0.810934,0.0154 -0.012,-0.80507 -0.012,-0.80507 h -0.815347 -0.815334 v -0.74655 c 0,-0.4106 -0.0121,-0.77795 -0.0268,-0.81634 -0.0238,-0.0622 0.0656,-0.0698 0.816334,-0.0698 h 0.843137 v -0.81634 -0.81635 h 0.821934 0.821947 l -0.0166,-0.80531 -0.0166,-0.80532 0.808974,-0.0121 0.808987,-0.012 -0.0258,-0.74548 c -0.0141,-0.41001 -0.0378,-0.77692 -0.0526,-0.81534 -0.0239,-0.0623 0.0666,-0.0699 0.829584,-0.0699 h 0.856407 l -0.0187,-0.79428 -0.0187,-0.79429 h 0.843874 0.843884 v -0.79429 -0.79427 h 0.838387 0.838414 v -0.79428 -0.79429 h 0.816337 0.816354 v -0.81634 -0.81634 h 0.816337 0.816334 v -0.83841 -0.8384 h 0.838417 0.838384 v -0.75016 -0.75016 h 0.882544 0.882527 v 0.75016 0.75016 l 0.827374,-5e-5 0.827374,-5e-5 -0.0138,0.81544 -0.0138,0.81544 0.844967,0.012 0.844974,0.012 -0.006,0.80532 -0.006,0.80531 h 0.818087 0.818094 v 0.81635 0.81635 h 0.815327 0.815324 l 0.0121,0.77607 0.012,0.77608 0.805317,-0.006 0.805304,-0.006 v 0.81982 0.81982 l 0.827367,-0.006 0.827374,-0.006 0.012,0.79805 0.012,0.79806 h 0.815354 0.815347 v 0.81634 0.81634 h 0.815364 0.815367 l 0.012,0.82738 0.012,0.82738 h 0.805284 0.805307 l 1e-5,0.82738 2e-5,0.82736 h -0.816337 -0.816344 l -0.008,0.67294 c -0.005,0.37011 -0.0104,0.71838 -0.0129,0.77394 -0.005,0.10044 -0.009,0.10114 -0.775107,0.12106 -0.423677,0.0116 -0.786424,0.0202 -0.806134,0.0203 -0.0196,1.4e-4 -0.0296,0.36765 -0.0221,0.81667 l 0.0138,0.8164 -0.827377,-4e-5 -0.827364,-6e-5 -0.006,0.76118 c -0.003,0.41865 -0.003,0.77609 0,0.79429 0.003,0.0183 -0.372067,0.0331 -0.833184,0.0331 h -0.838407 v 0.84331 0.8433 l -0.805304,-0.016 -0.805317,-0.016 -0.012,0.80531 -0.012,0.80531 h -0.815354 -0.815347 v 0.81635 0.81635 h -0.818264 -0.818267 l 0.0129,0.79433 0.0129,0.79435 -0.661894,0.009 c -0.36404,0.006 -0.73637,0.008 -0.82738,0.007 l -0.16547,-0.002 v 0.80814 0.80816 l -0.827374,0.012 -0.827374,0.012 -0.0121,0.76119 -0.012,0.76118 h -0.881487 -0.881494 v -0.75016 z m -0.463337,-10.48301 c 2.208538,-0.0104 4.93887,-0.0386 6.067414,-0.0629 1.128524,-0.0243 2.195378,-0.0443 2.370798,-0.0444 l 0.318917,-1.3e-4 0.012,-0.80532 0.012,-0.80531 h 0.827777 0.827784 l -0.0116,-2.37471 -0.0116,-2.37469 -0.816344,-0.008 -0.816337,-0.008 -0.012,-0.7612 -0.0121,-0.76117 -0.407137,-1.4e-4 c -0.22392,-8e-5 -1.240094,-0.0212 -2.258168,-0.0469 -1.018064,-0.0258 -4.170356,-0.0505 -7.005088,-0.055 l -5.154043,-0.008 v 0.82387 0.82388 l -0.812754,0.0146 c -0.447007,0.008 -0.828597,0.0304 -0.847957,0.0498 -0.0194,0.0194 -0.0432,1.09666 -0.0531,2.39388 l -0.0178,2.35858 h 0.865817 0.865804 v 0.86749 0.86747 l 1.025934,-0.0323 c 0.564277,-0.0177 2.832925,-0.0407 5.041463,-0.0508 z"
          id="path346-3" />
        <path style="fill:currentColor;stroke-width:0.139483"
          d="m 70.572271,168.86667 c -0.23778,-0.10352 -0.56731,-0.40661 -0.732287,-0.67356 -0.297852,-0.48193 -0.299955,-0.54162 -0.299439,-8.48918 5.06e-4,-7.68735 0.01128,-8.02145 0.272311,-8.44957 0.385137,-0.63164 0.898628,-0.9248 1.60125,-0.91418 0.803768,0.0121 1.401465,0.34467 1.824739,1.01519 0.192337,0.30468 0.404127,0.55395 0.470652,0.55395 0.06652,0 0.48642,-0.28379 0.933101,-0.63064 1.033186,-0.80229 1.890762,-1.07081 2.896841,-0.90707 1.106211,0.18004 1.683475,0.46898 2.522717,1.26269 0.851756,0.80556 0.915677,0.80285 1.752414,-0.0745 2.070184,-2.17056 5.840202,-1.35569 7.282882,1.57417 l 0.458447,0.93103 v 6.86228 c 0,6.72098 -0.006,6.8704 -0.288879,7.25628 -0.724574,0.98823 -2.275263,1.16852 -3.006959,0.34961 -0.210789,-0.23592 -0.449544,-0.66766 -0.530567,-0.95943 -0.09306,-0.33513 -0.147795,-2.79071 -0.148618,-6.66777 -0.0011,-5.83647 -0.0146,-6.15912 -0.273085,-6.58302 -0.772943,-1.26766 -2.373719,-1.31772 -3.300483,-0.1032 l -0.401966,0.52677 -0.06974,6.59064 -0.06974,6.59063 -0.34871,0.37301 c -0.544536,0.58247 -1.083542,0.80488 -1.764645,0.7281 -0.74428,-0.0839 -1.223051,-0.38621 -1.545185,-0.97572 -0.223478,-0.40896 -0.253638,-1.08114 -0.316741,-7.05872 l -0.06974,-6.60671 -0.539217,-0.46595 c -0.990569,-0.85597 -2.343781,-0.73988 -3.07835,0.26409 -0.278969,0.38128 -0.290145,0.60158 -0.357709,7.05033 -0.06351,6.06185 -0.0918,6.69037 -0.316577,7.03318 -0.462065,0.70469 -1.664592,0.98559 -2.556715,0.59723 z m 52.305699,-2.8e-4 c -0.23811,-0.10365 -0.58333,-0.39934 -0.76716,-0.65709 l -0.33423,-0.4686 -0.0436,-7.39262 c -0.024,-4.06595 -0.003,-7.72561 0.0459,-8.13259 0.16122,-1.33281 1.20799,-2.12108 2.41111,-1.8157 0.52508,0.13328 1.28298,0.69287 1.28298,0.94728 0,0.16482 0.40362,0.56225 0.57101,0.56225 0.0729,0 0.398,-0.24216 0.72233,-0.53813 0.70211,-0.64073 0.99771,-0.80594 1.74074,-0.97289 0.69668,-0.15653 1.96948,0.0303 2.68155,0.39353 0.74574,0.38045 1.72293,1.40229 2.09214,2.18775 0.50725,1.07912 0.57715,2.21478 0.53318,8.66191 -0.0383,5.61442 -0.0622,6.1432 -0.29336,6.49581 -0.43378,0.66162 -1.04534,0.95125 -1.87854,0.88965 -0.8685,-0.0642 -1.48421,-0.55083 -1.70569,-1.34807 -0.0811,-0.2918 -0.13814,-3.01113 -0.1386,-6.603 -0.001,-6.67085 -0.0111,-6.76471 -0.8017,-7.32766 -0.65005,-0.46287 -1.44224,-0.53104 -2.15474,-0.18542 -1.06487,0.51656 -1.01146,0.14166 -1.08935,7.64598 l -0.0697,6.71901 -0.34871,0.37775 c -0.66015,0.71513 -1.60519,0.931 -2.45544,0.56088 z m -26.94116,-0.36042 c -1.010565,-0.35918 -1.894511,-1.02799 -2.470157,-1.86895 -0.985813,-1.44019 -0.97876,-1.38877 -0.976872,-7.12588 0.0016,-5.08571 0.0065,-5.17308 0.329673,-5.99779 0.903304,-2.30494 3.565782,-3.51061 6.87024,-3.11112 2.128046,0.25727 3.557306,1.15757 4.330666,2.72791 l 0.46026,0.9346 0.0479,3.07827 c 0.0574,3.68644 -0.0157,4.08727 -0.8452,4.63666 l -0.57625,0.38169 -3.28851,0.0697 -3.288516,0.0697 -0.03854,0.90664 c -0.04887,1.15037 0.248202,1.75014 1.08641,2.19339 0.530766,0.28068 0.79935,0.31731 2.32613,0.31731 2.392386,0 3.111966,0.35478 3.111966,1.53432 0,0.58873 -0.28527,1.03983 -0.83844,1.32589 -0.64211,0.33205 -5.253409,0.27856 -6.240809,-0.0724 z m 4.62336,-9.56417 c 0.1458,-0.37995 0.0701,-3.44576 -0.10091,-4.0901 -0.23377,-0.88046 -0.974893,-1.45398 -1.896559,-1.46765 -0.847386,-0.0126 -1.348841,0.31779 -1.788532,1.17828 -0.282158,0.5522 -0.313836,0.81535 -0.313836,2.60715 v 1.99299 h 2.007586 c 1.701981,0 2.020471,-0.0336 2.092251,-0.22064 z m 10.03385,9.57947 c -1.51695,-0.55496 -2.52988,-1.54395 -3.14985,-3.07541 -0.30457,-0.75234 -0.31328,-0.9133 -0.31332,-5.79523 -3e-5,-3.929 0.0432,-5.17313 0.19889,-5.71883 0.57818,-2.02707 2.21156,-3.23469 4.78951,-3.54105 3.14816,-0.37414 5.82242,0.84023 6.67727,3.03211 0.27435,0.70344 0.31391,1.11415 0.36896,3.8307 0.0717,3.53923 -0.0274,4.03313 -0.92028,4.58837 -0.4916,0.30569 -0.65583,0.32128 -3.82638,0.3634 l -3.31273,0.044 2.8e-4,0.93239 c 2.8e-4,1.20849 0.28973,1.78992 1.10272,2.21501 0.54536,0.28516 0.80955,0.32144 2.34082,0.32144 2.09571,0 2.60041,0.16155 2.92397,0.93595 0.28413,0.68002 0.12218,1.3717 -0.41458,1.77061 -0.36291,0.26972 -0.60033,0.29497 -3.06864,0.32638 -2.33207,0.0297 -2.76782,1.4e-4 -3.39657,-0.22983 z m 4.55709,-11.45554 c 0,-2.36761 -0.11741,-2.8308 -0.84976,-3.35228 -0.35019,-0.24936 -0.64759,-0.32958 -1.22176,-0.32958 -0.71584,0 -0.78836,0.0332 -1.27857,0.58561 -0.63919,0.72028 -0.69493,0.98716 -0.69493,3.3274 v 1.86559 h 2.02251 2.02251 z m 26.16859,11.36822 c -1.05018,-0.43604 -1.60358,-0.86263 -2.23508,-1.72289 -0.94705,-1.29015 -0.96322,-1.4101 -1.02243,-7.58347 l -0.0532,-5.54447 h -1.2574 c -1.19866,0 -1.2761,-0.0187 -1.65797,-0.40057 -0.53766,-0.53766 -0.64914,-1.04332 -0.36252,-1.64436 0.30421,-0.63796 0.92581,-0.88422 2.23185,-0.88422 h 1.03782 l 0.0499,-2.05738 c 0.0575,-2.36804 0.19831,-2.78731 1.08883,-3.24162 0.71868,-0.36664 1.38606,-0.3552 1.95553,0.0335 0.83808,0.57206 0.97631,1.03586 0.97631,3.27568 v 1.98982 h 1.58325 c 0.87078,0 1.76844,0.0645 1.99478,0.14346 0.74356,0.25921 1.08476,1.21923 0.7188,2.02243 -0.28385,0.62298 -0.76468,0.76326 -2.6161,0.76326 h -1.68073 v 5.3073 c 0,5.81214 -0.006,5.76836 0.83523,6.38743 0.33712,0.24817 0.71818,0.35182 1.58328,0.43068 0.62663,0.0571 1.27585,0.18911 1.44273,0.29332 0.64915,0.40541 0.82466,1.65671 0.30987,2.20927 -0.452,0.48518 -0.8578,0.57616 -2.54126,0.5698 -1.32942,-0.005 -1.68157,-0.0563 -2.38157,-0.34697 z"
          id="path794" />
      </g>
    </g>
  </g>
</svg>